<svg xmlns="http://www.w3.org/2000/svg" xmlns:xlink="http://www.w3.org/1999/xlink" viewBox="0 0 68.09 64.87"><defs><style>.cls-1{fill:url(#linear-gradient);}.cls-2{fill:url(#linear-gradient-2);}.cls-3{fill:url(#linear-gradient-3);}.cls-4{fill:url(#linear-gradient-4);}.cls-5{fill:url(#linear-gradient-5);}.cls-6{fill:url(#linear-gradient-6);}.cls-7{fill:url(#linear-gradient-7);}.cls-8{fill:url(#linear-gradient-8);}.cls-9{fill:none;clip-rule:evenodd;}.cls-10{clip-path:url(#clip-path);}.cls-11{fill:url(#linear-gradient-9);}.cls-12{mask:url(#mask);}.cls-13,.cls-16,.cls-18,.cls-20,.cls-22,.cls-24,.cls-26,.cls-27{fill-rule:evenodd;}.cls-14{clip-path:url(#clip-path-2);}.cls-15{fill:url(#linear-gradient-10);}.cls-16{fill:#fff;}.cls-17{mask:url(#mask-2);}.cls-18{fill:#7f0003;}.cls-19{mask:url(#mask-3);}.cls-20{fill:#ff9797;}.cls-21{mask:url(#mask-4);}.cls-22{fill:#bfe6ed;}.cls-23{mask:url(#mask-5);}.cls-24{fill:#640000;}.cls-25{mask:url(#mask-6);}.cls-26{fill:#8d1b02;}.cls-27{fill:#6a0c02;}.cls-28{mask:url(#mask-8);}</style><linearGradient id="linear-gradient" x1="-38.85" y1="122.07" x2="-76.96" y2="56.63" gradientTransform="translate(82.83 -65.92)" gradientUnits="userSpaceOnUse"><stop offset="0" stop-color="#fff"/><stop offset="1"/></linearGradient><linearGradient id="linear-gradient-2" x1="-42.38" y1="134.6" x2="-60.41" y2="92.99" gradientTransform="translate(87.05 -81.87)" xlink:href="#linear-gradient"/><linearGradient id="linear-gradient-3" x1="-58.92" y1="130.1" x2="-73.52" y2="107.59" gradientTransform="translate(91.26 -105.91)" xlink:href="#linear-gradient"/><linearGradient id="linear-gradient-4" x1="-69.44" y1="134.95" x2="-71.79" y2="117.36" gradientTransform="translate(120.51 -115.2)" xlink:href="#linear-gradient"/><linearGradient id="linear-gradient-5" x1="-68.94" y1="120.3" x2="-50.11" y2="85.68" gradientTransform="translate(89.41 -61.17)" xlink:href="#linear-gradient"/><linearGradient id="linear-gradient-6" x1="-68.12" y1="118.55" x2="-49.8" y2="85.27" gradientTransform="translate(89.51 -61.17)" xlink:href="#linear-gradient"/><linearGradient id="linear-gradient-7" x1="-70.05" y1="119.13" x2="-50.43" y2="89.74" gradientTransform="translate(89.51 -61.17)" xlink:href="#linear-gradient"/><linearGradient id="linear-gradient-8" x1="-76.93" y1="84.68" x2="-55.06" y2="113.48" gradientTransform="translate(88.53 -61.28)" xlink:href="#linear-gradient"/><clipPath id="clip-path" transform="translate(9.13)"><path class="cls-9" d="M59,6.6c0,.12,0,.23,0,.35-.07,1.72-1.26,9.51-16.59,13.82C25,25.63-.24,34.06,5.07,60.11-9.13,37.56,9.23,15.15,26.52,12c0,0,2.75-9.11,8.93-12,0,0-1.53,4-.19,7.28,0,0,.92-4.87,4.81-6.58C36.43,11.36,53.43,10.16,59,6.6"/></clipPath><linearGradient id="linear-gradient-9" x1="18.3" y1="56.41" x2="75.69" y2="-39.67" gradientUnits="userSpaceOnUse"><stop offset="0" stop-color="red"/><stop offset="1" stop-color="#4d0000"/></linearGradient><mask id="mask" x="11.59" y="6.6" width="56.49" height="53.51" maskUnits="userSpaceOnUse"><g transform="translate(9.13)"><rect class="cls-1" x="2.46" y="6.6" width="56.49" height="53.51"/></g></mask><clipPath id="clip-path-2" transform="translate(9.13)"><path class="cls-9" d="M9.14,64.87C1.5,31.62,41.18,27.6,46.61,23.6,56.46,62,14.61,36.35,9.14,64.87"/></clipPath><linearGradient id="linear-gradient-10" x1="25.93" y1="63.91" x2="69.66" y2="-6.74" xlink:href="#linear-gradient-9"/><mask id="mask-2" x="15.81" y="6.6" width="52.28" height="37.56" maskUnits="userSpaceOnUse"><g transform="translate(9.13)"><rect class="cls-2" x="6.69" y="6.6" width="52.28" height="37.56"/></g></mask><mask id="mask-3" x="20.02" y="0" width="24.56" height="20.12" maskUnits="userSpaceOnUse"><g transform="translate(9.13)"><rect class="cls-3" x="10.89" width="24.56" height="20.12"/></g></mask><mask id="mask-4" x="49.27" y="5.82" width="18.81" height="5.02" maskUnits="userSpaceOnUse"><g transform="translate(9.13)"><rect class="cls-4" x="40.14" y="5.82" width="18.81" height="5.02"/></g></mask><mask id="mask-5" x="18.18" y="23.6" width="39.06" height="41.26" maskUnits="userSpaceOnUse"><g transform="translate(9.13)"><rect class="cls-5" x="9.05" y="23.6" width="39.06" height="41.26"/></g></mask><mask id="mask-6" x="18.27" y="23.6" width="38.97" height="41.26" maskUnits="userSpaceOnUse"><g transform="translate(9.13)"><rect class="cls-6" x="9.14" y="23.6" width="38.97" height="41.26"/></g></mask><mask id="mask-8" x="17.29" y="23.6" width="38.45" height="41.15" maskUnits="userSpaceOnUse"><g transform="translate(9.13)"><rect class="cls-8" x="8.16" y="23.6" width="38.45" height="41.15"/></g></mask></defs><g id="Layer_2" data-name="Layer 2"><g id="Layer_1-2" data-name="Layer 1"><g class="cls-10"><rect class="cls-11" width="68.09" height="60.11"/></g><g class="cls-12"><path class="cls-13" d="M59,6.6c0,.12,0,.23,0,.35-.07,1.72-1.26,9.51-16.59,13.82C25,25.63-.24,34.06,5.07,60.11c-.08-.12-.15-.24-.22-.36-8.2-20.87,5.8-37.83,25.68-41.64-7.46-1-9.69,1.21-9.69,1.21C33.52,7,54,18.45,59,6.6" transform="translate(9.13)"/></g><g class="cls-14"><rect class="cls-15" x="10.62" y="23.6" width="54.97" height="41.26"/></g><path class="cls-16" d="M28.63,30.39c8-3.55,15.78-5.17,18-6.79C51.4,42.24,44,45.78,34.46,47.76c5.7-1.92,8-8.25,8-8.25a20.5,20.5,0,0,1-10.24-.94,20.5,20.5,0,0,0,8-6.89,72,72,0,0,0-11.64-1.29" transform="translate(9.13)"/><path class="cls-13" d="M59,6.6C55.59,17.63,40.3,13,32,16.78c0,0,3.72-.81,10.86,1.25C33,17.38-2.86,27.9,5.07,60.11-.15,17.1,59.89,28.42,59,6.6" transform="translate(9.13)"/><g class="cls-17"><path class="cls-18" d="M48.73,17.29c-9.31,4.12-35.6,5.3-42,26.87C16.45,19.74,59.75,25.16,59,6.6c0,0-.61,10.42-16.19,9.57a29.67,29.67,0,0,0,6,1.12" transform="translate(9.13)"/></g><g class="cls-19"><path class="cls-20" d="M10.89,20.12s9.68-7.5,19.52-7.4c0,0-.1-5.18,1.52-7.19a13.39,13.39,0,0,0-2.59,5S29.53,4.9,35.45,0c-6.18,2.85-8.93,12-8.93,12a32.57,32.57,0,0,0-15.63,8.16" transform="translate(9.13)"/></g><g class="cls-21"><path class="cls-22" d="M59,6.6c-4.4,2.83-16.07,4.17-18.81-.78,0,0,1.14,3.73,8.61,4.32a11.29,11.29,0,0,1-6.5-1.34c6,4.28,13,1,16.7-2.2" transform="translate(9.13)"/></g><g class="cls-23"><path class="cls-24" d="M29.69,36.37C6.49,41.42,9.14,64.87,9.14,64.87,14.61,36.35,56.46,62,46.61,23.6c-5.15,14.8-17.68,8.93-30,23.11,6.69-8.52,13.09-10.34,13.09-10.34" transform="translate(9.13)"/></g><g class="cls-25"><path class="cls-26" d="M42.71,33.35c-8,14.32-31.45,5-33.57,31.52C14.61,36.35,56.46,62,46.61,23.6c-.83,19.53-17.3,21-17.3,21,11.6-4,13.4-11.27,13.4-11.27" transform="translate(9.13)"/></g><g class="cls-25"><path class="cls-27" d="M45.26,37C39.2,53.59,12.9,38.22,9.14,64.87,14.61,36.35,56.46,62,46.61,23.6c0,0,2.51,15.2-10.55,20.39,0,0,6.44-1.51,9.2-7" transform="translate(9.13)"/></g><g class="cls-28"><path class="cls-20" d="M46.61,23.6c-5.42,4-45,8-37.5,41.15-.4-1.84-4.76-24.57,22.74-31.39a34.23,34.23,0,0,0-15.13,6c9.66-9.64,21.59-4.31,29.89-15.81" transform="translate(9.13)"/></g></g></g></svg>